<svg xmlns="http://www.w3.org/2000/svg" viewBox="0 0 1440 320"><path fill="#204761ff" fill-opacity="0.8" d="M0,192L18.5,197.3C36.9,203,74,213,111,218.7C147.7,224,185,224,222,186.7C258.5,149,295,75,332,64C369.2,53,406,107,443,154.7C480,203,517,245,554,229.3C590.8,213,628,139,665,138.7C701.5,139,738,213,775,250.7C812.3,288,849,288,886,288C923.1,288,960,288,997,282.7C1033.8,277,1071,267,1108,229.3C1144.6,192,1182,128,1218,106.7C1255.4,85,1292,107,1329,112C1366.2,117,1403,107,1422,101.3L1440,96L1440,320L1421.5,320C1403.1,320,1366,320,1329,320C1292.3,320,1255,320,1218,320C1181.5,320,1145,320,1108,320C1070.8,320,1034,320,997,320C960,320,923,320,886,320C849.2,320,812,320,775,320C738.5,320,702,320,665,320C627.7,320,591,320,554,320C516.9,320,480,320,443,320C406.2,320,369,320,332,320C295.4,320,258,320,222,320C184.6,320,148,320,111,320C73.8,320,37,320,18,320L0,320Z"></path></svg>
